<svg id="logoMark" data-name="Layer 2" xmlns="http://www.w3.org/2000/svg" viewBox="0 0 1000 959"><path class="logo-1" d="M160,214.63H840a47.55,47.55,0,0,1,47.55,47.55v511.6a50.59,50.59,0,0,1-50.59,50.59H160a47.55,47.55,0,0,1-47.55-47.55V262.18A47.55,47.55,0,0,1,160,214.63Z"/><path class="logo-2" d="M830,222.5H170.12a47.55,47.55,0,0,0-47.55,47.55V769a47.55,47.55,0,0,0,47.55,47.55H827a50.59,50.59,0,0,0,50.59-50.59V270.05A47.55,47.55,0,0,0,830,222.5Zm14.55,526.42a39.64,39.64,0,0,1-39.64,39.64H195.21a39.64,39.64,0,0,1-39.64-39.64V327.5h689Z"/><polygon class="logo-2" points="670.05 604 651.56 585.51 619.53 617.56 393.38 370.98 393.26 371.11 350.18 368.04 307 364.97 310.09 408.14 313.16 451.22 313.04 451.35 559.38 677.73 527.58 709.53 546.07 728.01 591.99 682.08 661.02 751.09 693.14 718.96 624.11 649.95 670.05 604"/><polygon class="logo-2" points="693.13 364.96 649.96 368.04 606.87 371.12 606.75 371 507.66 478.82 575.96 553.28 687.12 451.34 686.99 451.22 690.06 408.13 693.13 364.96"/><polygon class="logo-2" points="380.37 617.33 348.57 585.53 330.08 604.02 376.02 649.95 307.01 718.98 339.14 751.1 408.15 682.07 454.1 728 472.58 709.52 440.54 677.48 490.16 631.98 423.34 570.58 380.37 617.33"/><rect class="logo-3" x="670.21" y="138.94" width="79.29" height="152.56" rx="31.03"/><rect class="logo-3" x="265.09" y="139.03" width="79.29" height="152.56" rx="31.03"/><rect class="logo-2" x="273.86" y="145.85" width="62.05" height="138.59" rx="31.03"/><rect class="logo-2" x="678.75" y="146.18" width="62.05" height="138.59" rx="31.03"/></svg>