<svg version="1.1" id="logo" xmlns="http://www.w3.org/2000/svg" xmlns:xlink="http://www.w3.org/1999/xlink" x="0px" y="0px"
	 viewBox="0 0 2145.3 539" style="enable-background:new 0 0 2145.3 539;" xml:space="preserve">
<g id="Layer_3">
	<path class="logo-2" d="M277.2,383.1c0,14.9-4.1,27.8-12.4,38.9c-8.4,11.2-19.1,20.4-31.4,26.9c-13.2,7.3-29.6,12.6-49,16
		c-19.4,3.4-39.1,5.2-58.8,5.2c-13.2,0.2-25.2,0-35.8-0.5c-5.2-0.3-9.5-0.5-13-0.6c-4.9-0.2-9-4-9.5-8.9L63,420.5
		c-0.6-5.5,3.4-10.4,8.9-11c0.5-0.1,1-0.1,1.5,0l9,0.4c9.6,0.5,20.1,0.7,31.6,0.7c6,0,12.8-0.3,20.4-1c7.3-0.6,14.5-1.9,21.5-4
		c10-2.7,16.6-6.1,19.7-10.2c3.2-4.1,4.9-9.1,4.8-14.3c0.1-4.8-1.8-9.5-5.3-12.8c-3.5-3.4-9.1-7.2-16.7-11.4
		c-7.8-4.4-15.7-8.4-23.9-12c-9.1-4-17.9-8.5-26.4-13.6c-12.5-7.6-21.8-16.6-27.9-27c-6.1-10.5-9.3-22.5-9.1-34.7
		c-0.1-13.4,4-26.5,11.7-37.4c7.8-11.1,19.7-20.6,35.6-28.4c13.1-6.3,28.4-10.8,46.1-13.3c16.5-2.4,33.2-3.9,49.9-4.4
		c13.1-0.2,23.9-0.1,32.6,0.1c3.4,0.1,6.3,0.2,8.8,0.2c5,0.1,9.1,3.9,9.7,8.8l4.7,39.8c0.6,5.5-3.3,10.5-8.8,11.1
		c-0.6,0.1-1.1,0.1-1.7,0.1l-3.5-0.2c-7.5-0.4-16.9-0.7-28.2-0.7c-7.4,0-14.7,0.5-22,1.5c-6.3,0.9-12.5,2.3-18.5,4.2
		c-6.9,2.3-12,5.4-15.4,9.1c-6.8,6.8-6.7,17.8,0.1,24.6c0.4,0.4,0.8,0.8,1.3,1.1c5.1,4.3,10.7,8,16.7,10.9
		c6.7,3.6,15.1,7.8,25.2,12.5c10.1,4.7,18,8.8,23.8,12.2c12.5,7.6,22,16.4,28.4,26.3C274,357.7,277.2,369.5,277.2,383.1z"/>
	<path class="logo-2" d="M525.4,408.8l-7,56.1c-0.3,2.4-2.4,4.3-4.8,4.3h-10.9c-31.2,0-58.4-2.8-81.5-8.4
		c-23.1-5.6-43.7-13.8-61.6-24.5c-20.5-12-36.4-27.4-47.8-46.1c-11.3-18.7-17-39.7-17-62.7c0-22.5,5.4-42.5,16.2-60
		c11-17.7,25.8-32.6,43.4-43.7c18.5-12.1,40.3-21.3,65.3-27.5c25-6.2,52.7-9.3,83-9.2h7.9c2.5,0,4.6,1.9,4.9,4.3l6.3,56.4
		c0.3,2.7-1.6,5.1-4.3,5.4c-0.2,0-0.4,0-0.5,0h-4.9c-13.3,0-26.6,0.8-39.7,2.4c-13,1.6-25.9,4.5-38.4,8.7c-16.1,5.4-29,13.8-38.5,25
		c-9.5,11.2-14.3,23.8-14.3,37.8c0,15.8,4.6,28.9,13.7,39.5c9.2,10.5,21.4,18.7,36.6,24.5c11.1,4.4,24.1,7.5,39,9.4
		c13,1.8,26.2,2.7,39.3,2.9h10.8c2.7,0,4.9,2.2,4.9,4.9C525.4,408.4,525.4,408.6,525.4,408.8z"/>
	<path class="logo-2" d="M810.5,469.9h-63.3c-5.5,0-10-4.5-10-10c0,0,0,0,0-0.1c0.1-9.4,0.2-23.5,0.4-42.3c0.3-27.5,0.4-46.1,0.4-55.9
		c0-9.1-0.1-19.5-0.3-31.3c-0.2-11.8-0.3-21.9-0.3-30.5c-0.4-17.4-3.3-29.7-8.8-36.9c-5.5-7.2-14.9-10.8-28.2-10.8
		c-8.7,0-19.1,2.2-31.2,6.7c-12.3,4.6-24.2,10.1-35.5,16.7l0.8,184.2c0,5.5-4.4,10-9.9,10c0,0,0,0-0.1,0H561c-5.5,0-10-4.5-10-10
		c0-14.7,0.2-37.6,0.4-68.8c0.3-39.5,0.4-82.8,0.4-129.9c0-24.7-0.1-53.1-0.3-85.3c-0.2-29.3-0.3-60.9-0.5-94.8
		c0-5.5,4.4-10,9.9-10.1c0,0,0,0,0.1,0h63.4c5.5,0,10,4.5,10,10c0,0,0,0,0,0.1l-1,136.3l0.5,0.3c17.3-9.4,35.4-17.2,54.2-23.3
		c19.2-6.3,36-9.4,50.3-9.4c25,0,44.9,7.8,59.7,23.3s22.2,36.4,22.2,62.7c0,22-0.1,40.2-0.4,54.8s-0.4,26.9-0.4,36.9
		c0,16.9,0.1,36.5,0.4,58.8c0.2,15.9,0.4,28.6,0.5,38.3c0.1,5.5-4.3,10.1-9.8,10.2C810.6,469.9,810.6,469.9,810.5,469.9z"/>
	<path class="logo-2" d="M1089.5,268.2l-148.7,99.1c7.8,11.4,18.7,20.4,31.4,25.7c13,5.6,28.1,7.1,45.4,4.6c12-2.1,23.8-5.7,34.9-10.7
		c6.7-3,17.9-9.4,25.8-14.1c4.8-2.8,10.9-1.2,13.7,3.5c0.2,0.3,0.3,0.6,0.5,0.9l17.1,37.3c2.1,4.5,0.5,9.9-3.7,12.6
		c-23.7,15.1-46.5,26.1-68.6,33.2c-24.3,7.8-47.6,10.6-69.8,8.4c-19-2-37.3-7.9-53.8-17.4c-17.2-9.7-31.6-23.4-43.4-41.1
		c-11.7-17.5-19.4-34.9-23.1-52.3c-3.7-17.4-3.6-36.4,0.2-57.1c3.2-17.1,10.4-33.5,21.6-49c10.9-15.2,24.4-28.3,39.9-38.7
		c16.3-10.9,32.4-18.3,48.3-22.2c15.3-3.9,31.3-4.4,46.9-1.3c18.3,3.7,35.4,11.7,50,23.5c13.1,10.3,25.7,24,37.9,41
		c3.2,4.5,2.1,10.8-2.4,13.9C1089.7,268.1,1089.6,268.2,1089.5,268.2z M1012.7,275.5c-11.2-13.9-23.6-22.6-37.2-26.2
		c-13.6-3.6-27.2-0.8-40.8,8.2c-13.3,8.9-21.3,20.5-24.2,34.9c-2.8,14.4-0.5,29.9,6.9,46.6L1012.7,275.5z"/>
	<path class="logo-2" d="M1382.8,458.9c0,5.5-4.4,9.9-9.8,10c-2.7,0-5.6,0.1-8.8,0.2c-8.1,0.2-15.4,0.3-21.9,0.3
		c-38.7,0-69.6-1.8-92.9-5.3s-43.9-9.8-61.9-18.7c-25.2-12.2-44.3-28.1-57.3-47.8s-19.5-42.1-19.5-67.4c0-26.1,7.1-49.7,21.4-70.8
		c14.2-21,35.6-37.5,64.1-49.2c16-6.8,32.8-11.8,49.9-14.8c17.8-3.3,35.9-5.3,54-5.9l-0.8-112.1c0-5.5,4.4-10,9.9-10.1
		c0,0,0,0,0.1,0h63.4c5.5,0,10,4.5,10,10c-0.1,11.3-0.2,31.1-0.4,59.5c-0.3,41.1-0.4,87.6-0.4,139.4c0,44.8,0.1,82.9,0.4,114.3
		C1382.6,417.3,1382.8,440.1,1382.8,458.9z M1303.4,297.4v-44.9c-12,0-24,0.9-35.9,2.9c-10.9,1.7-21.4,5.1-31.3,9.9
		c-12.8,5.8-23.5,15.2-30.9,27.1c-7.3,11.9-11,25.7-11,41.5c0,14.1,3.3,26.5,9.8,37.1c6.7,10.8,15.9,19.7,26.9,26
		c9.8,5.4,20.3,9.3,31.3,11.7c11.7,2.6,23.7,3.8,35.6,3.8h5.2c0-1.8,0-12.6,0.1-32.2C1303.3,360.6,1303.4,333,1303.4,297.4z"/>
	<path class="logo-2" d="M1671.5,469h-61.3c-5.5,0-10-4.5-10-10v-16.4l-0.3-0.3c-13.1,7.3-29.3,14.8-48.8,22.6s-38,11.7-55.4,11.7
		c-26.5,0-47-7.8-61.6-23.4c-14.6-15.6-21.9-37-21.9-64.2c0-17.2,0.1-35.9,0.4-55.9c0.3-20,0.4-34.7,0.4-44
		c0-16.9-0.2-36.2-0.6-58.1c-0.2-12.9-0.4-22.8-0.4-29.8c-0.1-5.5,4.4-10.1,9.9-10.1c0,0,0.1,0,0.1,0h63.4c5.5,0,10,4.5,10,10
		c0,0,0,0.1,0,0.1c-0.1,6.6-0.2,15.9-0.3,27.9c-0.3,20.8-0.4,38.1-0.4,52.1c0,11.1,0.1,25,0.3,41.9c0.2,16.9,0.3,29.2,0.3,37
		c0.2,16,2.7,28.3,7.6,36.9c4.9,8.6,13.7,12.9,26.4,12.9c11.6,0,24.4-3,38.5-8.9s24.4-11.1,30.9-15.6c0-1.3,0.1-10.4,0.3-27.5
		s0.3-36.3,0.3-57.7c0-18.5-0.2-40-0.6-64.6c-0.2-15.2-0.4-26.6-0.5-34.4c-0.1-5.5,4.4-10,9.9-10.1c0,0,0.1,0,0.1,0h63.4
		c5.5,0,10,4.5,10,10c0,0,0,0.1,0,0.1c-0.1,7.1-0.2,17.3-0.3,30.6c-0.3,22.4-0.4,51-0.4,85.9c0,24.1,0.1,45.7,0.3,64.6
		c0.2,17.3,0.3,42.8,0.5,76.6C1681.6,464.5,1677.1,469,1671.5,469C1671.6,469,1671.5,469,1671.5,469z"/>
	<path class="logo-2" d="M1952.2,267.6l-149,98.7c7.7,11.4,18.6,20.4,31.3,25.8c13,5.6,28.1,7.2,45.4,4.7c12-2.1,23.8-5.6,34.9-10.6
		c6.7-3,17.9-9.3,25.9-14c4.8-2.8,10.9-1.2,13.7,3.6c0.2,0.3,0.3,0.6,0.5,0.9c4.9,10.8,12.5,27.6,17,37.4c2.1,4.5,0.5,9.9-3.7,12.6
		c-23.7,15-46.6,26-68.6,33c-24.3,7.8-47.6,10.5-69.8,8.2c-19-2-37.3-8-53.8-17.6c-17.1-9.8-31.6-23.5-43.3-41.2
		c-11.6-17.5-19.3-35-23-52.4c-3.7-17.4-3.6-36.4,0.4-57.1c3.2-17.1,10.5-33.5,21.7-49c10.9-15.2,24.5-28.2,40-38.6
		c16.3-10.8,32.4-18.2,48.4-22.1c15.3-3.9,31.4-4.3,46.9-1.2c18.3,3.8,35.4,11.8,49.9,23.6c13.1,10.4,25.7,24.1,37.8,41.1
		c3.2,4.5,2.2,10.7-2.3,14C1952.3,267.5,1952.3,267.5,1952.2,267.6z M1875.4,274.7c-11.2-13.9-23.6-22.7-37.2-26.3
		c-13.6-3.6-27.2-0.9-40.8,8.1c-13.3,8.8-21.4,20.4-24.2,34.8c-2.8,14.4-0.6,29.9,6.7,46.6L1875.4,274.7z"/>
	<path class="logo-2" d="M2068.5,470.5H2005c-5.5,0-10-4.5-10-10c0-14.7,0.2-38.1,0.4-70.2c0.3-40.8,0.4-83.1,0.4-126.8
		c0-25,0-54-0.1-86.8c-0.1-29.8-0.3-61.5-0.6-94.9c-0.1-5.5,4.4-10,9.9-10.1c0,0,0.1,0,0.1,0h63.4c5.5,0,10,4.5,10,10
		c-0.2,27.3-0.3,55.7-0.5,85.2c-0.2,33.2-0.3,64.3-0.3,93.3c0,47.2,0.1,88.7,0.4,124.6c0.2,30.6,0.4,55.8,0.4,75.7
		C2078.5,466,2074,470.5,2068.5,470.5C2068.5,470.5,2068.5,470.5,2068.5,470.5z"/>
</g>
</svg>
